<svg width="180" height="180" viewBox="0 0 180 180" fill="none" xmlns="http://www.w3.org/2000/svg">
<g clip-path="url(#clip0_205_126)">
<path opacity="0.53" d="M32.062 167.702C50.8567 167.702 66.0928 165.296 66.0928 162.328C66.0928 159.359 50.8567 156.953 32.062 156.953C13.2674 156.953 -1.96875 159.359 -1.96875 162.328C-1.96875 165.296 13.2674 167.702 32.062 167.702Z" fill="#EBEBEB"/>
<path d="M174.853 156.578H63.0801C65.1213 122.72 89.3601 95.9905 118.966 95.9905C148.573 95.9905 172.801 122.72 174.853 156.578Z" fill="#EBEBEB"/>
<path d="M157.389 9.73438H80.5469V156.578H157.389V9.73438Z" fill="#156815"/>
<path d="M151.794 14.0759H86.1338V156.578H151.794V14.0759Z" fill="#2D4048"/>
<path d="M149.534 16.5347H88.3984V156.582H149.534V16.5347Z" fill="#228A22"/>
<path d="M118.966 93.0385C121.895 93.0385 124.269 90.6643 124.269 87.7357C124.269 84.807 121.895 82.4329 118.966 82.4329C116.037 82.4329 113.663 84.807 113.663 87.7357C113.663 90.6643 116.037 93.0385 118.966 93.0385Z" fill="#EBEBEB"/>
<path d="M119.758 41.7131C119.758 41.8698 119.711 42.0229 119.624 42.1532C119.537 42.2834 119.414 42.3849 119.269 42.4449C119.124 42.5048 118.965 42.5205 118.811 42.4899C118.658 42.4594 118.517 42.3839 118.406 42.2732C118.295 42.1624 118.22 42.0213 118.189 41.8677C118.158 41.714 118.174 41.5548 118.234 41.4101C118.294 41.2653 118.396 41.1416 118.526 41.0546C118.656 40.9676 118.809 40.9211 118.966 40.9211C119.176 40.9211 119.377 41.0046 119.526 41.1531C119.674 41.3016 119.758 41.5031 119.758 41.7131Z" fill="white"/>
<path d="M76.5291 68.9219H67.9287V77.5223H76.5291V68.9219Z" fill="#228A22"/>
<path d="M74.3869 70.6968H70.1641V75.276H74.3869V70.6968Z" fill="white"/>
<path d="M95.3288 91.4363H95.0624C93.8953 91.4363 92.9492 92.3824 92.9492 93.5495V98.2151C92.9492 99.3822 93.8953 100.328 95.0624 100.328H95.3288C96.4959 100.328 97.442 99.3822 97.442 98.2151V93.5495C97.442 92.3824 96.4959 91.4363 95.3288 91.4363Z" fill="#7EC488"/>
<path d="M95.2132 93.7693H95.1735C95.0006 93.7693 94.8604 93.9095 94.8604 94.0825V97.8949C94.8604 98.0679 95.0006 98.2081 95.1735 98.2081H95.2132C95.3861 98.2081 95.5264 98.0679 95.5264 97.8949V94.0825C95.5264 93.9095 95.3861 93.7693 95.2132 93.7693Z" fill="#281B46"/>
<path d="M96.1562 94.32C96.1562 94.1292 96.0996 93.9427 95.9936 93.784C95.8876 93.6254 95.7369 93.5017 95.5606 93.4287C95.3843 93.3556 95.1903 93.3365 95.0031 93.3738C94.816 93.411 94.6441 93.5029 94.5091 93.6378C94.3742 93.7727 94.2823 93.9447 94.2451 94.1318C94.2079 94.319 94.227 94.5129 94.3 94.6892C94.373 94.8655 94.4967 95.0162 94.6553 95.1222C94.814 95.2282 95.0005 95.2848 95.1914 95.2848C95.4472 95.2848 95.6926 95.1832 95.8736 95.0022C96.0545 94.8213 96.1562 94.5759 96.1562 94.32Z" fill="#281B46"/>
<path opacity="0.53" d="M152.565 173.837C171.964 173.837 187.69 172.333 187.69 170.478C187.69 168.623 171.964 167.119 152.565 167.119C133.166 167.119 117.439 168.623 117.439 170.478C117.439 172.333 133.166 173.837 152.565 173.837Z" fill="#EBEBEB"/>
<path d="M170.23 122.033H115.063V169.967H170.23V122.033Z" fill="#F1C29F"/>
<path d="M171.408 122.033H156.82V169.967H171.408V122.033Z" fill="#E1AB87"/>
<path d="M137.517 122.033H131.778V133.16H137.517V122.033Z" fill="white"/>
<path d="M165.514 122.033H162.717V133.16H165.514V122.033Z" fill="white"/>
<path d="M140.174 137.336L140.483 137.398C141.006 137.509 141.486 137.77 141.862 138.15C142.145 138.437 142.399 138.752 142.618 139.09C142.701 139.208 142.777 139.331 142.849 139.45L143.734 141.008C143.756 141.048 143.777 141.084 143.81 141.134L145.394 140.123H145.412L145.372 140.209C144.386 141.959 143.403 143.71 142.424 145.462C142.407 145.497 142.379 145.527 142.344 145.546C142.309 145.564 142.269 145.571 142.229 145.566H138.611H135.911C135.864 145.569 135.816 145.562 135.771 145.544L137.798 144.436C137.79 144.409 137.78 144.382 137.769 144.356C137.235 143.074 136.59 141.841 135.843 140.67C135.217 139.687 134.467 138.79 133.611 137.999C133.368 137.775 133.106 137.572 132.83 137.39L132.758 137.336H132.898H135.181C135.231 137.336 135.278 137.336 135.328 137.336H140.174Z" fill="white"/>
<path d="M148.526 153.252L148.504 153.306C148.029 154.328 147.557 155.347 147.064 156.366C146.73 157.111 146.347 157.833 145.916 158.526C145.574 159.071 145.157 159.564 144.677 159.991C144.027 160.55 143.243 160.93 142.402 161.096C141.911 161.198 141.41 161.25 140.908 161.251H139.324C139.323 161.259 139.323 161.268 139.324 161.276V163.372H139.295C138.29 161.605 137.285 159.836 136.282 158.065C137.287 156.265 138.291 154.465 139.303 152.644C139.325 152.754 139.332 152.866 139.324 152.978C139.324 153.086 139.324 153.198 139.324 153.31V153.947C139.324 154.058 139.324 154.166 139.324 154.278V154.602H139.461C141.527 154.602 143.59 154.602 145.653 154.58C146.045 154.567 146.432 154.489 146.798 154.35C147.434 154.136 148.005 153.765 148.457 153.27C148.479 153.245 148.493 153.212 148.511 153.187L148.526 153.252Z" fill="white"/>
<path d="M134.201 154.674V161.28H134.104H129.021C128.962 161.278 128.904 161.267 128.848 161.248C128.101 161 127.411 160.603 126.821 160.081C126.183 159.519 125.622 158.875 125.151 158.166C124.625 157.388 124.15 156.576 123.729 155.736C123.293 154.886 122.865 154.033 122.437 153.18L122.404 153.112L122.498 153.176C123 153.616 123.551 153.996 124.139 154.31C124.42 154.472 124.727 154.583 125.047 154.638C125.147 154.649 125.248 154.655 125.349 154.656H134.201V154.674Z" fill="white"/>
<path d="M131.606 151.312L129.558 150.088L127.545 154.336H127.441C126.789 154.336 126.141 154.307 125.493 154.303C125.255 154.3 125.02 154.253 124.798 154.166C124.008 153.873 123.325 153.347 122.84 152.658C122.575 152.294 122.354 151.9 122.181 151.484C122.162 151.448 122.151 151.407 122.151 151.366C122.151 151.324 122.162 151.283 122.181 151.247C122.87 149.857 123.553 148.466 124.23 147.074C124.258 147.02 124.28 146.966 124.309 146.909L122.232 145.768C122.343 145.739 128.301 145.728 128.568 145.768L131.62 151.308L131.606 151.312Z" fill="white"/>
<path d="M143.45 154.267C142.509 152.534 141.569 150.804 140.631 149.076L146.326 145.627L146.394 145.757C147.255 147.481 148.112 149.209 148.979 150.93C149.071 151.117 149.095 151.329 149.048 151.531C149.003 151.753 148.919 151.965 148.799 152.158C148.249 153.076 147.405 153.782 146.405 154.163C146.161 154.254 145.902 154.298 145.642 154.292L143.579 154.267H143.45Z" fill="white"/>
<path d="M135.173 140.4L132.434 145.652L126.785 142.106L126.836 142.016L129.633 137.822C129.666 137.767 129.719 137.726 129.78 137.707C130.272 137.528 130.795 137.451 131.318 137.48C131.84 137.518 132.347 137.677 132.797 137.945C133.301 138.246 133.754 138.625 134.14 139.068C134.499 139.477 134.835 139.904 135.148 140.35C135.148 140.35 135.162 140.4 135.173 140.4Z" fill="white"/>
<path d="M47.6973 88.0091V96.0443C47.6973 98.6723 44.9721 100.829 41.6169 100.829H24.9381C21.5865 100.829 18.8613 98.6687 18.8613 96.0443V88.0091C18.8613 85.3667 21.5865 83.2283 24.9381 83.2283H41.6169C44.9721 83.2283 47.6973 85.3667 47.6973 88.0091ZM46.3473 96.0443V88.0091C46.3473 85.9535 44.2377 84.2867 41.6169 84.2867H24.9381C22.3317 84.2867 20.2113 85.9535 20.2113 88.0091V96.0443C20.2113 98.0927 22.3317 99.7595 24.9381 99.7595H41.6169C44.2377 99.7595 46.3473 98.0927 46.3473 96.0443Z" fill="#2E536B"/>
<path d="M46.3469 88.0093V96.0445C46.3469 98.0929 44.2373 99.7597 41.6165 99.7597H24.9377C22.3313 99.7597 20.2109 98.0929 20.2109 96.0445V88.0093C20.2109 85.9537 22.3313 84.2869 24.9377 84.2869H41.6165C44.2373 84.2869 46.3469 85.9537 46.3469 88.0093ZM43.0493 95.5405V88.7797C43.0561 88.618 43.0303 88.4566 42.9734 88.3052C42.9165 88.1537 42.8297 88.0152 42.7182 87.898C42.6067 87.7808 42.4727 87.6872 42.3243 87.6228C42.1758 87.5584 42.0159 87.5246 41.8541 87.5233H24.7037C24.5426 87.5255 24.3835 87.5601 24.2359 87.6249C24.0883 87.6897 23.9551 87.7834 23.8444 87.9006C23.7336 88.0177 23.6475 88.1558 23.591 88.3068C23.5346 88.4578 23.509 88.6186 23.5157 88.7797V95.5405C23.51 95.7013 23.5363 95.8616 23.5931 96.0122C23.6499 96.1628 23.7361 96.3005 23.8466 96.4174C23.9572 96.5344 24.0899 96.6281 24.2371 96.6933C24.3842 96.7584 24.5429 96.7936 24.7037 96.7969H41.8541C42.0156 96.7946 42.1751 96.76 42.323 96.6953C42.471 96.6306 42.6046 96.537 42.7159 96.42C42.8272 96.3029 42.9141 96.1649 42.9713 96.0138C43.0286 95.8628 43.0551 95.7019 43.0493 95.5405Z" fill="#FDF7E8"/>
<path d="M43.0493 88.7796V95.5404C43.0551 95.7018 43.0286 95.8628 42.9713 96.0138C42.914 96.1648 42.8272 96.3029 42.7159 96.4199C42.6046 96.5369 42.471 96.6305 42.323 96.6953C42.175 96.76 42.0156 96.7945 41.8541 96.7968H24.7037C24.5428 96.7936 24.3842 96.7583 24.237 96.6932C24.0899 96.6281 23.9572 96.5343 23.8466 96.4174C23.736 96.3004 23.6499 96.1627 23.593 96.0121C23.5362 95.8616 23.5099 95.7012 23.5157 95.5404V88.7796C23.509 88.6185 23.5346 88.4578 23.591 88.3068C23.6475 88.1558 23.7336 88.0176 23.8444 87.9005C23.9551 87.7834 24.0882 87.6896 24.2358 87.6248C24.3834 87.56 24.5425 87.5255 24.7037 87.5232H41.8541C42.0159 87.5245 42.1758 87.5584 42.3242 87.6227C42.4727 87.6871 42.6066 87.7807 42.7182 87.8979C42.8297 88.0152 42.9165 88.1536 42.9734 88.3051C43.0302 88.4566 43.0561 88.6179 43.0493 88.7796ZM42.2429 95.5404V88.7796C42.2429 88.4016 42.0161 88.1568 41.8541 88.1568H24.7037C24.5489 88.1568 24.3257 88.4016 24.3257 88.7796V95.5404C24.3257 95.9184 24.5489 96.174 24.7037 96.174H41.8541C42.0161 96.174 42.2429 95.9184 42.2429 95.5404Z" fill="#FF4739"/>
<path d="M42.2424 88.7795V95.5403C42.2424 95.9183 42.0156 96.1739 41.8536 96.1739H24.7032C24.5484 96.1739 24.3252 95.9183 24.3252 95.5403V88.7795C24.3252 88.4015 24.5484 88.1567 24.7032 88.1567H41.8536C42.0156 88.1567 42.2424 88.4015 42.2424 88.7795ZM41.5548 95.1587V92.1959L41.0724 92.6315V94.7339L41.5548 95.1587ZM41.5548 92.0771V89.1251L41.0724 89.5607V91.6415L41.5548 92.0771ZM40.9752 89.5067L41.472 89.0603H38.16L38.6604 89.5067H40.9752ZM38.16 95.3207H41.4576L40.9608 94.8671H38.6604L38.16 95.3207ZM38.5524 94.7339V92.6315L38.0592 92.1959V95.1587L38.5524 94.7339ZM38.5524 91.6415V89.5607L38.0592 89.1251V92.0771L38.5524 91.6415ZM37.44 95.1587V92.1959L36.9612 92.6315V94.7339L37.44 95.1587ZM37.44 92.0771V89.1251L36.9612 89.5607V91.6415L37.44 92.0771ZM36.8532 89.5067L37.3608 89.0603H34.0524L34.56 89.5067H36.8532ZM34.0524 95.3207H37.3608L36.8532 94.8671H34.56L34.0524 95.3207ZM34.4412 94.7339V92.6315L33.9552 92.1959V95.1587L34.4412 94.7339ZM34.4412 91.6415V89.5607L33.9552 89.1251V92.0771L34.4412 91.6415ZM33.0552 95.3207V94.8959H32.5692V95.3207H33.0552ZM31.878 95.1587V89.1251V89.1431L31.806 89.0603H28.4832L28.9512 89.4779L28.8792 89.5607L28.3896 89.1251V95.1587L28.872 94.7411L28.98 94.8671L28.4832 95.3207H31.788L31.2804 94.8671L31.3992 94.7411L31.878 95.1587Z" fill="#64E2DC"/>
<path d="M41.5556 92.196V95.1588L41.0732 94.7304V92.6316L41.5556 92.196Z" fill="#123856"/>
<path d="M41.5556 89.1252V92.0772L41.0732 91.6416V89.5608L41.5556 89.1252Z" fill="#123856"/>
<path d="M41.4724 89.0603L40.9756 89.5067H38.6752L38.1748 89.0603H41.4724Z" fill="#123856"/>
<path d="M41.4724 95.3208H38.1748L38.6752 94.8672H40.9756L41.4724 95.3208Z" fill="#123856"/>
<path d="M38.5674 92.6316V94.7304L38.0742 95.1588V92.196L38.5674 92.6316Z" fill="#123856"/>
<path d="M38.5674 89.5608V91.6416L38.0742 92.0772V89.1252L38.5674 89.5608Z" fill="#123856"/>
<path d="M37.4407 92.196V95.1588L36.9619 94.7304V92.6316L37.4407 92.196Z" fill="#123856"/>
<path d="M37.4407 89.1252V92.0772L36.9619 91.6416V89.5608L37.4407 89.1252Z" fill="#123856"/>
<path d="M37.3611 89.0603L36.8535 89.5067H34.5495L34.0527 89.0603H37.3611Z" fill="#123856"/>
<path d="M37.3611 95.3208H34.0527L34.5495 94.8672H36.8535L37.3611 95.3208Z" fill="#123856"/>
<path d="M35.2302 100.829H31.335V118.033H35.2302V100.829Z" fill="#2D4048"/>
<path d="M34.4417 92.6316V94.7304L33.9521 95.1588V92.196L34.4417 92.6316Z" fill="#123856"/>
<path d="M34.4417 89.5608V91.6416L33.9521 92.0772V89.1252L34.4417 89.5608Z" fill="#123856"/>
<path d="M33.0589 94.896H32.5693V95.3208H33.0589V94.896Z" fill="#123856"/>
<path d="M31.8783 92.196V95.1588L31.3995 94.7412L31.3887 94.7304V92.6316L31.8783 92.196Z" fill="#123856"/>
<path d="M31.878 92.0771V92.1959L31.3884 92.6315V94.7303L31.3992 94.7411L31.2804 94.8671H28.98L28.872 94.7411L28.8792 94.7303V92.6315L28.3896 92.1959V92.0771L28.8792 91.6415V89.5607L28.9512 89.4779L28.98 89.5067H31.2804L31.788 89.0603L31.86 89.1431L31.3884 89.5607V91.6415L31.878 92.0771Z" fill="#64E2DC"/>
<path d="M31.8783 89.1252V92.0772L31.3887 91.6416V89.5608L31.8603 89.1432L31.8783 89.1252Z" fill="#123856"/>
<path d="M31.7882 89.0603L31.2806 89.5067H28.9802L28.9514 89.4779L28.4834 89.0603H31.7882Z" fill="#123856"/>
<path d="M31.7882 95.3208H28.4834L28.9802 94.8672H31.2806L31.7882 95.3208Z" fill="#123856"/>
<path d="M28.8792 92.6316V94.7304L28.872 94.7412L28.3896 95.1588V92.196L28.8792 92.6316Z" fill="#123856"/>
<path d="M28.8792 89.5608V91.6416L28.3896 92.0772V89.1252L28.8792 89.5608Z" fill="#123856"/>
<path d="M40.9688 118.033H25.5968C18.7136 118.033 13.1084 123.073 13.1084 129.229V155.466C13.1187 156.329 13.2397 157.187 13.4684 158.018H15.5564C15.2922 157.193 15.1574 156.332 15.1568 155.466V133.29H24.9884V158.018H27.0008V133.29H39.5504V158.018H41.57V133.29H51.4196V155.466C51.4189 156.332 51.2841 157.193 51.02 158.018H53.1116C53.3314 157.185 53.445 156.328 53.45 155.466V129.24C53.4572 123.059 47.8484 118.033 40.9688 118.033ZM15.1388 131.476V129.24C15.1388 124.261 19.502 120.172 24.9884 119.88V131.476H15.1388ZM35.2304 131.476H27.0008V119.848H39.5504V131.476H35.2304ZM41.5772 131.476V119.88C47.0672 120.161 51.4268 124.25 51.4268 129.24V131.486L41.5772 131.476Z" fill="#228A22"/>
<path d="M35.2299 119.848H31.3311V131.476H35.2299V119.848Z" fill="#2D4048"/>
<path d="M35.2299 133.29H31.3311V158.022H35.2299V133.29Z" fill="#2D4048"/>
<path d="M11.3767 161.878C11.3744 161.905 11.3744 161.933 11.3767 161.96C11.3767 162.77 12.2839 163.426 13.4035 163.426H17.9215C19.0483 163.426 19.9519 162.77 19.9519 161.96C19.9543 161.933 19.9543 161.905 19.9519 161.878H11.3767Z" fill="#7EC488"/>
<path d="M45.5693 161.878C45.5693 161.903 45.5693 161.928 45.5693 161.96C45.5693 162.77 46.4765 163.426 47.5889 163.426H52.1321C53.2445 163.426 54.1553 162.77 54.1553 161.96C54.1553 161.928 54.1553 161.903 54.1553 161.878H45.5693Z" fill="#7EC488"/>
<path d="M58.5074 153.133H8.057C6.815 153.133 5.7998 154.051 5.7998 155.167V159.847C5.7998 160.963 6.815 161.877 8.057 161.877H58.5074C59.7458 161.877 60.7646 160.963 60.7646 159.847V155.16C60.7646 154.051 59.7602 153.133 58.5074 153.133Z" fill="#2D4048"/>
<path d="M72.926 77.238C67.3568 79.9848 71.3312 91.746 71.3312 91.746L82.592 88.3692C82.592 88.3692 79.1396 74.16 72.926 77.238Z" fill="#281B46"/>
<path d="M93.1435 92.5632C92.5675 93.042 91.6279 92.0844 91.1491 91.0764C90.3859 92.3004 88.0891 92.4192 88.0891 92.4192L86.0911 95.4252L82.0807 101.444C81.0649 101.094 80.151 100.499 79.4195 99.7114C78.6881 98.9241 78.1617 97.9689 77.8867 96.93C79.5161 94.6717 81.3424 92.5623 83.3443 90.6264C85.4431 88.6428 87.1603 87.5988 88.2187 87.5268C88.2187 87.5268 91.0987 87.1164 91.6135 87.858C92.1283 88.5996 93.7195 92.0844 93.1435 92.5632Z" fill="#FFC89C"/>
<path d="M96.513 95.9219C96.5185 95.9419 96.5185 95.963 96.513 95.9831C96.261 96.8183 92.193 100.778 92.193 100.778L89.7198 100.418L86.7354 99.9755L87.135 98.7875L87.7686 97.0343C87.7686 97.0343 91.077 93.7547 91.545 93.5999C92.2866 93.3551 95.865 94.8491 95.865 94.8491C95.9226 94.9967 96.4806 95.6375 96.513 95.9219Z" fill="#40355B"/>
<path d="M96.5132 95.9219C96.5187 95.942 96.5187 95.9631 96.5132 95.9831C96.2612 96.8183 92.1932 100.778 92.1932 100.778L89.72 100.418L87.2324 99.4247L92.06 94.6799L96.5132 95.9219Z" fill="#281B46"/>
<path opacity="0.53" d="M71.8316 174.87C90.6263 174.87 105.862 173.418 105.862 171.626C105.862 169.835 90.6263 168.383 71.8316 168.383C53.0369 168.383 37.8008 169.835 37.8008 171.626C37.8008 173.418 53.0369 174.87 71.8316 174.87Z" fill="#EBEBEB"/>
<path d="M80.3417 111.902L80.0969 118.533L78.6245 158.526L78.4985 161.928L78.3761 165.215H67.3997L67.5365 161.928L67.6841 158.342L69.2177 121.151H67.4717L65.8481 158.31L65.6897 161.928L65.5493 165.215H54.5693L54.6377 161.928L54.7097 158.123L55.5593 115.023L55.6637 109.692L80.3417 111.902Z" fill="#2D4048"/>
<path d="M65.8481 158.31L65.6897 161.928H54.6377L54.7097 158.123L65.8481 158.31Z" fill="#EBEBEB"/>
<path d="M78.6241 158.526L78.4981 161.928H67.5361L67.6837 158.342L78.6241 158.526Z" fill="#EBEBEB"/>
<g style="mix-blend-mode:multiply" opacity="0.2">
<path d="M80.342 111.902L80.0936 118.534L74.8268 120.301L72.5984 165.215H67.4L69.218 121.151H67.472C60.5816 119.3 57.1724 116.744 55.5596 115.031L55.664 109.699L80.342 111.902Z" fill="#691E46"/>
</g>
<path d="M66.5361 72.2339C66.5361 72.2339 60.2397 74.7539 56.9097 83.4371C54.0297 90.9179 54.2133 111.258 54.2133 111.258C54.2133 111.258 68.1597 116.089 81.2709 113.418C83.0709 96.2603 82.4085 82.8935 75.5937 75.4163C69.0633 75.9599 66.5361 72.2339 66.5361 72.2339Z" fill="#228A22"/>
<path d="M66.9607 63.9108C66.9607 63.9108 62.9647 61.9488 65.2327 58.5108C63.8755 56.826 64.6927 53.4708 67.8787 53.0208C67.2883 49.4424 71.3815 47.3112 73.8151 49.0356C75.0823 44.9568 82.9771 47.0844 82.2787 51.1956C86.5087 50.8356 88.2367 54.612 87.2035 57.132C89.7415 58.7952 88.2079 65.6604 82.4083 63.5868C78.7147 65.5452 66.9607 63.9108 66.9607 63.9108Z" fill="#281B46"/>
<path d="M83.8805 59.0401C83.8805 59.0401 83.0669 66.9169 81.9149 70.3261C80.7629 73.7353 76.0181 72.5617 76.0181 72.5617L75.6977 74.7433L75.6041 75.4093C75.6731 77.4443 75.363 79.4745 74.6897 81.3961C69.4121 79.3657 66.5465 72.2377 66.5465 72.2377L68.1161 65.0377C68.1161 65.0377 65.1209 64.0153 66.7985 60.4909C68.1341 61.1857 69.7901 59.7241 69.7901 59.7241C71.4281 60.4225 73.6277 60.0841 74.4701 56.9377C77.4941 58.2373 80.8097 55.3213 80.8097 55.3213L83.8805 59.0401Z" fill="#FFBD9F"/>
<path d="M77.2384 61.6428C77.2179 61.7704 77.16 61.889 77.072 61.9836C76.984 62.0782 76.8699 62.1445 76.7441 62.1741C76.6183 62.2037 76.4866 62.1952 76.3657 62.1497C76.2447 62.1042 76.1401 62.0239 76.0649 61.9188C75.9898 61.8137 75.9476 61.6886 75.9437 61.5594C75.9398 61.4303 75.9743 61.3029 76.043 61.1935C76.1117 61.084 76.2113 60.9975 76.3293 60.9448C76.4473 60.8921 76.5782 60.8757 76.7056 60.8976C76.875 60.9259 77.0263 61.0202 77.1262 61.1599C77.2261 61.2997 77.2665 61.4734 77.2384 61.6428Z" fill="#281B46"/>
<path d="M82.4005 62.7083C82.38 62.8358 82.3221 62.9545 82.2341 63.0491C82.1461 63.1436 82.032 63.2099 81.9062 63.2395C81.7804 63.2691 81.6487 63.2606 81.5278 63.2151C81.4068 63.1697 81.3022 63.0893 81.227 62.9842C81.1519 62.8791 81.1097 62.754 81.1058 62.6249C81.1019 62.4957 81.1364 62.3684 81.2051 62.2589C81.2738 62.1495 81.3734 62.0629 81.4914 62.0102C81.6094 61.9576 81.7403 61.9411 81.8677 61.9631C82.0371 61.9913 82.1884 62.0856 82.2883 62.2254C82.3882 62.3651 82.4286 62.5388 82.4005 62.7083Z" fill="#281B46"/>
<path d="M74.6933 59.1084C74.8589 59.7744 78.8081 59.3784 78.5741 58.7088C78.3401 58.0392 74.4413 58.1004 74.6933 59.1084Z" fill="#281B46"/>
<path d="M80.3165 60.1201C80.2913 60.7969 84.0389 61.4665 84.0065 60.7717C83.9741 60.0769 80.3597 59.1049 80.3165 60.1201Z" fill="#281B46"/>
<path d="M79.6287 64.4399C79.5754 64.4391 79.5243 64.4183 79.4856 64.3816C79.447 64.3449 79.4235 64.295 79.4199 64.2419L79.3011 61.7903C79.2996 61.763 79.3036 61.7357 79.3128 61.7101C79.322 61.6844 79.3363 61.6608 79.3547 61.6407C79.3732 61.6206 79.3954 61.6043 79.4202 61.5929C79.445 61.5815 79.4718 61.5752 79.4991 61.5743C79.5261 61.5723 79.5533 61.5758 79.579 61.5846C79.6046 61.5934 79.6283 61.6073 79.6484 61.6255C79.6686 61.6436 79.6849 61.6657 79.6964 61.6903C79.7078 61.7149 79.7142 61.7415 79.7151 61.7687L79.8375 64.2239C79.8394 64.2786 79.8198 64.332 79.7827 64.3724C79.7457 64.4128 79.6942 64.4371 79.6395 64.4399H79.6287Z" fill="#281B46"/>
<path d="M71.0964 61.7939L69.0264 64.0331C69.0264 64.0331 68.6664 68.5943 74.7864 70.2143C80.9065 71.8343 82.7496 69.7139 82.7496 69.7139L83.538 65.0339C83.538 65.0339 81.738 63.3887 80.0173 63.1583C78.57 62.9747 71.0964 61.7939 71.0964 61.7939Z" fill="#EBEBEB"/>
<path d="M72.2558 63.0288C72.2252 63.021 72.1969 63.0062 72.173 62.9856L68.0402 59.4612C68.0194 59.4436 68.0024 59.4221 67.9901 59.3978C67.9777 59.3735 67.9703 59.3471 67.9683 59.3199C67.9663 59.2928 67.9697 59.2655 67.9784 59.2397C67.987 59.2139 68.0007 59.1901 68.0186 59.1696C68.0365 59.1488 68.0584 59.1317 68.0829 59.1193C68.1075 59.1069 68.1343 59.0995 68.1617 59.0975C68.1891 59.0955 68.2167 59.0989 68.2428 59.1076C68.2689 59.1163 68.293 59.13 68.3138 59.148L72.4466 62.6688C72.4677 62.6865 72.4851 62.7082 72.4978 62.7326C72.5105 62.757 72.5183 62.7837 72.5206 62.8112C72.5229 62.8386 72.5198 62.8662 72.5115 62.8925C72.5031 62.9187 72.4896 62.943 72.4718 62.964C72.4452 62.9937 72.411 63.0154 72.3729 63.0269C72.3348 63.0383 72.2943 63.039 72.2558 63.0288Z" fill="#EBEBEB"/>
<path d="M91.4942 103.198C90.9974 103.918 90.3674 104.494 89.8994 104.566C88.8842 104.724 83.6426 104.566 83.6426 104.566H80.4026L62.8346 104.486L60.2246 92.3581L63.5366 91.4077L69.7538 89.6077L70.7042 96.2461L81.065 98.0461L83.6282 98.4889L87.7502 97.0273L87.1202 98.7841L92.1602 100.778C92.4698 101.344 92.0738 102.359 91.4942 103.198Z" fill="#FED2AA"/>
<path d="M91.4942 103.197C90.9974 103.917 90.3674 104.493 89.8994 104.565C88.8842 104.724 83.6426 104.565 83.6426 104.565H80.4026L62.8346 104.486L60.2246 92.3579L63.5366 91.4075L66.2618 101.451L91.4942 103.197Z" fill="#FED2AA"/>
<path d="M62.1507 77.7887C56.5815 80.5391 59.7567 93.7655 59.7567 93.7655L71.0175 90.8567C71.0175 90.8567 68.3643 74.7215 62.1507 77.7887Z" fill="#2D4048"/>
<path d="M54 171.598C54 171.598 71.6148 171.94 71.6868 171.598C71.7084 171.479 65.5416 167.742 65.5416 167.742V165.222H54.5616L54 171.598Z" fill="#549176"/>
<path d="M62.9791 167.31C63.9832 167.31 64.7971 167.102 64.7971 166.845C64.7971 166.589 63.9832 166.381 62.9791 166.381C61.9751 166.381 61.1611 166.589 61.1611 166.845C61.1611 167.102 61.9751 167.31 62.9791 167.31Z" fill="white"/>
<path d="M65.6287 168.898C65.6287 169.153 64.8151 169.362 63.8107 169.362C62.8063 169.362 62.0107 169.153 62.0107 168.898C62.0107 168.642 62.8207 168.43 63.8107 168.43C64.8007 168.43 65.6287 168.638 65.6287 168.898Z" fill="white"/>
<path d="M66.8379 171.598C66.8379 171.598 84.4527 171.94 84.5247 171.598C84.5463 171.479 78.3795 167.742 78.3795 167.742V165.222H67.3995L66.8379 171.598Z" fill="#549176"/>
<path d="M75.8053 167.31C76.8094 167.31 77.6233 167.102 77.6233 166.845C77.6233 166.589 76.8094 166.381 75.8053 166.381C74.8013 166.381 73.9873 166.589 73.9873 166.845C73.9873 167.102 74.8013 167.31 75.8053 167.31Z" fill="white"/>
<path d="M78.4588 168.898C78.4588 169.153 77.6452 169.362 76.6408 169.362C75.6364 169.362 74.8408 169.153 74.8408 168.898C74.8408 168.642 75.6544 168.43 76.6408 168.43C77.6272 168.43 78.4588 168.638 78.4588 168.898Z" fill="white"/>
<path d="M76.0072 72.558L75.6868 74.7396C73.5268 74.3256 71.7268 73.0836 71.0068 69.9768C72.0004 71.64 76.0072 72.558 76.0072 72.558Z" fill="#FBA491"/>
<path d="M65.0022 54.0325C64.9583 54.0318 64.9158 54.0172 64.8807 53.991C64.8456 53.9648 64.8196 53.9281 64.8065 53.8863C64.7933 53.8445 64.7937 53.7996 64.8075 53.758C64.8213 53.7164 64.8478 53.6802 64.8834 53.6545C67.0434 52.1497 68.6022 52.9525 68.667 52.9849C68.7039 53.0158 68.729 53.0584 68.738 53.1057C68.7471 53.153 68.7396 53.2019 68.7167 53.2442C68.6938 53.2866 68.657 53.3197 68.6126 53.3381C68.5681 53.3564 68.5186 53.3588 68.4726 53.3449C68.4114 53.3161 67.0326 52.6249 65.1246 53.9857C65.0896 54.0136 65.0468 54.0299 65.0022 54.0325Z" fill="#281B46"/>
<path d="M81.76 52.0199C81.729 52.0203 81.6984 52.0137 81.6703 52.0006C81.6422 51.9875 81.6175 51.9683 81.598 51.9443C81.5637 51.9006 81.5479 51.8452 81.554 51.7901C81.5601 51.7349 81.5875 51.6843 81.6304 51.6491C82.021 51.3006 82.3326 50.8727 82.5443 50.394C82.7561 49.9153 82.863 49.3969 82.858 48.8735C82.857 48.8177 82.878 48.7639 82.9163 48.7235C82.9547 48.6831 83.0075 48.6594 83.0632 48.6575C83.1179 48.6575 83.1705 48.679 83.2096 48.7173C83.2486 48.7557 83.271 48.8079 83.272 48.8627C83.2824 49.4514 83.1637 50.0353 82.9242 50.5733C82.6848 51.1113 82.3304 51.5903 81.886 51.9767C81.8496 52.004 81.8055 52.0191 81.76 52.0199Z" fill="#281B46"/>
<path d="M75.834 87.2027L76.0788 89.8199H79.9668V87.0659L75.834 87.2027Z" fill="white"/>
<path d="M93.1432 92.5632C92.5672 93.042 91.6276 92.0844 91.1488 91.0764C90.3856 92.3004 88.0888 92.4192 88.0888 92.4192L86.0908 95.4252C83.3872 94.6836 83.2108 92.0844 83.3584 90.6264C85.4572 88.6428 87.1744 87.5988 88.2328 87.5268C88.2328 87.5268 91.1128 87.1164 91.6276 87.858C92.1424 88.5996 93.7192 92.0844 93.1432 92.5632Z" fill="#EBEBEB"/>
<path d="M89.9001 104.566C88.8849 104.724 83.6433 104.566 83.6433 104.566H80.4033L81.0657 98.0569L83.6289 98.4997L87.7509 97.0381L87.1209 98.7841L92.1609 100.778C92.7045 101.826 90.9225 104.4 89.9001 104.566Z" fill="#EBEBEB"/>
<path d="M74.6787 64.2312C74.6787 64.2312 79.6287 64.2312 82.4079 65.8656C77.7171 65.88 74.6787 64.2312 74.6787 64.2312Z" fill="white"/>
<path d="M73.1846 65.0483C73.1846 65.0483 77.6738 69.0299 82.1234 67.5503C79.4054 69.2351 75.4166 68.3567 73.1846 65.0483Z" fill="white"/>
</g>
<defs>
<clipPath id="clip0_205_126">
<rect width="180" height="180" fill="white"/>
</clipPath>
</defs>
</svg>
